<svg fill="" xmlns="http://www.w3.org/2000/svg" xmlns:xlink="http://www.w3.org/1999/xlink"><defs><symbol viewBox="0 0 20 20" id="arrow-down"><path d="M10.0006 10.9766L14.1256 6.85156L15.3039 8.0299L10.0006 13.3332L4.69727 8.0299L5.8756 6.85156L10.0006 10.9766Z" /></symbol><symbol viewBox="0 0 24 24" id="arrow-left"><path d="M7.828 11H20V13H7.828L13.192 18.364L11.778 19.778L4 12L11.778 4.22198L13.192 5.63598L7.828 11Z" /></symbol><symbol viewBox="0 0 24 24" id="arrow-right"><path d="M16.172 10.9999L10.808 5.63592L12.222 4.22192L20 11.9999L12.222 19.7779L10.808 18.3639L16.172 12.9999H4V10.9999H16.172Z" /></symbol><symbol viewBox="0 0 21 20" id="clear"><path d="M10.3846 18.3334C5.7821 18.3334 2.05127 14.6025 2.05127 10C2.05127 5.39752 5.7821 1.66669 10.3846 1.66669C14.9871 1.66669 18.7179 5.39752 18.7179 10C18.7179 14.6025 14.9871 18.3334 10.3846 18.3334ZM10.3846 8.82169L8.02794 6.46419L6.84877 7.64335L9.20627 10L6.84877 12.3567L8.02794 13.5359L10.3846 11.1784L12.7413 13.5359L13.9204 12.3567L11.5629 10L13.9204 7.64335L12.7413 6.46419L10.3846 8.82169Z" /></symbol><symbol viewBox="0 0 20 20" id="close"><path d="M10.0006 8.82129L14.1256 4.69629L15.3039 5.87462L11.1789 9.99962L15.3039 14.1246L14.1256 15.303L10.0006 11.178L5.8756 15.303L4.69727 14.1246L8.82227 9.99962L4.69727 5.87462L5.8756 4.69629L10.0006 8.82129Z" /></symbol><symbol viewBox="0 0 20 20" id="hopper"><path d="M8.33333 15H11.6667V13.3333H8.33333V15ZM2.5 5V6.66667H17.5V5H2.5ZM5 10.8333H15V9.16667H5V10.8333Z" /></symbol><symbol viewBox="0 0 20 20" id="notification-info"><path d="M10 20C4.477 20 0 15.523 0 10C0 4.477 4.477 0 10 0C15.523 0 20 4.477 20 10C20 15.523 15.523 20 10 20ZM10 18C12.1217 18 14.1566 17.1571 15.6569 15.6569C17.1571 14.1566 18 12.1217 18 10C18 7.87827 17.1571 5.84344 15.6569 4.34315C14.1566 2.84285 12.1217 2 10 2C7.87827 2 5.84344 2.84285 4.34315 4.34315C2.84285 5.84344 2 7.87827 2 10C2 12.1217 2.84285 14.1566 4.34315 15.6569C5.84344 17.1571 7.87827 18 10 18V18ZM9 5H11V7H9V5ZM9 9H11V15H9V9Z" /></symbol><symbol viewBox="0 0 20 20" id="plus"><path d="M9.16667 9.16663V4.16663H10.8333V9.16663H15.8333V10.8333H10.8333V15.8333H9.16667V10.8333H4.16667V9.16663H9.16667Z" /></symbol><symbol viewBox="0 0 20 20" id="search"><path d="M15.0258 13.8475L18.595 17.4159L17.4158 18.595L13.8475 15.0259C12.5198 16.0902 10.8683 16.6691 9.16666 16.6667C5.02666 16.6667 1.66666 13.3067 1.66666 9.16669C1.66666 5.02669 5.02666 1.66669 9.16666 1.66669C13.3067 1.66669 16.6667 5.02669 16.6667 9.16669C16.6691 10.8684 16.0902 12.5198 15.0258 13.8475ZM13.3542 13.2292C14.4118 12.1416 15.0024 10.6837 15 9.16669C15 5.94335 12.3892 3.33335 9.16666 3.33335C5.94332 3.33335 3.33332 5.94335 3.33332 9.16669C3.33332 12.3892 5.94332 15 9.16666 15C10.6837 15.0024 12.1416 14.4118 13.2292 13.3542L13.3542 13.2292V13.2292Z" /></symbol></defs></svg>